<mxfile host="app.diagrams.net" modified="2023-09-03T18:24:14.458Z" agent="Mozilla/5.0 (X11; Linux x86_64; rv:109.0) Gecko/20100101 Firefox/117.0" version="21.7.2" etag="FvNQm5NItaQLv_rVO6P7" type="github">
  <diagram name="PÃ¡gina-1" id="cakU42JR7T1_fZyWxM67">
    <mxGraphModel>
      <root>
        <mxCell id="0" />
        <mxCell id="1" parent="0" />
      </root>
    </mxGraphModel>
  </diagram>
</mxfile>
